<?xml version="1.0" standalone="no"?>
<!DOCTYPE svg PUBLIC "-//W3C//DTD SVG 20010904//EN"
 "http://www.w3.org/TR/2001/REC-SVG-20010904/DTD/svg10.dtd">
<svg version="1.0" xmlns="http://www.w3.org/2000/svg"
 width="397.000000pt" height="864.000000pt" viewBox="0 0 397.000000 864.000000"
 preserveAspectRatio="xMidYMid meet">

<g transform="translate(0.000000,864.000000) scale(0.100000,-0.100000)"
fill="#000000" stroke="none">
<path d="M1952 7927 c-12 -7 -20 -16 -16 -20 4 -3 15 -2 25 4 18 9 45 0 75
-26 6 -5 25 -21 43 -34 30 -23 31 -25 14 -45 -18 -20 -18 -20 8 -4 40 25 44 9
7 -29 -38 -39 -26 -45 14 -6 50 48 43 14 -7 -37 -27 -28 -45 -50 -40 -50 5 0
31 21 57 47 26 26 51 44 55 40 4 -4 -24 -39 -62 -77 -38 -39 -65 -70 -60 -70
5 0 40 30 77 67 37 37 71 64 75 60 4 -4 -31 -46 -77 -92 -47 -47 -80 -85 -75
-85 6 0 46 36 90 79 43 44 83 77 88 74 5 -3 -37 -52 -94 -109 -57 -57 -98
-104 -92 -104 6 0 51 43 100 95 49 52 97 95 107 95 9 0 14 -4 11 -10 -3 -5 1
-10 9 -10 9 0 16 -7 16 -15 0 -8 3 -14 8 -12 4 1 8 -2 9 -7 0 -5 8 -13 16 -17
9 -6 13 -20 11 -39 -4 -31 -3 -30 47 24 28 31 62 59 75 62 13 3 22 10 19 14
-10 17 -116 81 -211 128 -79 40 -283 123 -296 122 -2 -1 -13 -6 -26 -13z"/>
<path d="M1885 7900 c-3 -6 1 -7 9 -4 18 7 21 14 7 14 -6 0 -13 -4 -16 -10z"/>
<path d="M1704 7818 l-19 -23 25 20 c14 11 27 21 29 22 2 2 0 3 -6 3 -5 0 -18
-10 -29 -22z"/>
<path d="M1592 7764 c-23 -14 -40 -30 -36 -35 5 -8 84 45 84 57 0 6 -3 5 -48
-22z"/>
<path d="M2125 7540 c-49 -49 -85 -90 -80 -90 10 0 117 106 159 158 38 45 8
20 -79 -68z"/>
<path d="M2115 7480 c-44 -44 -75 -80 -69 -80 5 0 34 26 65 58 118 123 121
140 4 22z"/>
<path d="M2317 7533 c-4 -3 -7 -11 -7 -17 0 -6 5 -5 12 2 6 6 9 14 7 17 -3 3
-9 2 -12 -2z"/>
<path d="M2100 7415 c-41 -41 -70 -75 -64 -75 9 0 65 55 123 123 45 51 16 27
-59 -48z"/>
<path d="M2085 7350 c-38 -38 -65 -70 -59 -70 9 0 75 65 118 118 36 42 10 22
-59 -48z"/>
<path d="M2077 7292 c-54 -54 -81 -97 -36 -56 24 22 103 114 97 114 -2 0 -29
-26 -61 -58z"/>
<path d="M2057 7222 c-59 -59 -69 -76 -41 -65 13 5 15 2 9 -17 -7 -22 -7 -22
16 -5 13 10 35 34 47 54 l24 36 -29 -27 c-44 -42 -63 -34 -22 10 81 86 78 97
-4 14z"/>
<path d="M2060 7125 c-24 -25 -40 -45 -34 -45 5 0 29 20 52 45 23 25 39 45 34
45 -4 0 -28 -20 -52 -45z"/>
<path d="M2060 7075 c-19 -19 -29 -35 -24 -35 11 0 45 34 58 58 12 21 1 14
-34 -23z"/>
<path d="M2070 7035 c-19 -19 -29 -35 -24 -35 11 0 45 34 58 58 12 21 1 14
-34 -23z"/>
<path d="M2075 6990 c-21 -22 -34 -40 -29 -40 10 0 34 24 63 63 23 29 7 19
-34 -23z"/>
<path d="M2085 6950 c-21 -22 -34 -40 -29 -40 10 0 34 24 63 63 23 29 7 19
-34 -23z"/>
<path d="M2095 6910 c-21 -22 -34 -40 -29 -40 10 0 34 24 63 63 23 29 7 19
-34 -23z"/>
<path d="M2100 6865 c-19 -19 -29 -35 -23 -35 6 0 23 16 37 35 15 19 25 35 23
35 -1 0 -18 -16 -37 -35z"/>
<path d="M2099 6813 l-34 -38 38 34 c20 19 37 36 37 38 0 8 -8 0 -41 -34z"/>
<path d="M2110 6775 c-13 -14 -19 -25 -14 -25 8 1 50 50 41 50 -2 0 -14 -11
-27 -25z"/>
<path d="M2114 6728 l-19 -23 23 19 c21 18 27 26 19 26 -2 0 -12 -10 -23 -22z"/>
</g>
</svg>
